<?xml version="1.0" encoding="UTF-8" standalone="no"?>
<svg width="32px" height="32px" viewBox="0 0 32 32" version="1.1" xmlns="http://www.w3.org/2000/svg" xmlns:xlink="http://www.w3.org/1999/xlink">
    <!-- Generator: Sketch 44.1 (41455) - http://www.bohemiancoding.com/sketch -->
    <title>Files 2</title>
    <desc>Created with Sketch.</desc>
    <defs></defs>
    <g id="Page-2-Copy" stroke="none" stroke-width="1" fill="none" fill-rule="evenodd">
        <g id="235" stroke="#979797">
            <path d="M4.00329963,4 C3.44919255,4 3,4.44386482 3,5 L3,5 C3,5.55228475 3.45127869,6 4.00329963,6 L27.9967004,6 C28.5508075,6 29,5.55613518 29,5 L29,5 C29,4.44771525 28.5487213,4 27.9967004,4 L4.00329963,4 L4.00329963,4 Z M7.99339768,0 C7.44475929,0 7,0.443864822 7,1 L7,1 C7,1.55228475 7.44494629,2 7.99339768,2 L24.0066023,2 C24.5552407,2 25,1.55613518 25,1 L25,1 C25,0.44771525 24.5550537,0 24.0066023,0 L7.99339768,0 L7.99339768,0 Z" id="Rectangle-1131" stroke="none" fill="#2A2630" fill-rule="evenodd"></path>
            <path d="M0,10.0049466 C0,8.89702623 0.89621101,8 2.00174332,8 L29.9982567,8 C31.1107383,8 32,8.89764516 32,10.0049466 L32,29.9950534 C32,31.1029738 31.103789,32 29.9982567,32 L2.00174332,32 C0.889261723,32 0,31.1023548 0,29.9950534 L0,10.0049466 Z M29.9982567,10 C29.9982567,10 2,10.0011896 2,10.0049466 C2,10.0049466 1.99802605,30 2.00174332,30 C2.00174332,30 30,29.9988104 30,29.9950534 C30,29.9950534 30.001974,10 29.9982567,10 Z" id="Rectangle-821" stroke="none" fill="#ffffff" fill-rule="nonzero"></path>
        </g>
    </g>
</svg>